<svg width="40" height="40" viewBox="0 0 40 40" fill="none" xmlns="http://www.w3.org/2000/svg">
<g clip-path="url(#clip0_2422_8287)">
<path d="M38.0077 1.5625L22.3999 13.1547L25.2862 6.31544L38.0077 1.5625Z" fill="#E2761B" stroke="#E2761B" stroke-width="0.3125" stroke-linecap="round" stroke-linejoin="round"/>
<path d="M1.97656 1.5625L17.4589 13.2645L14.7138 6.31544L1.97656 1.5625Z" fill="#E4761B" stroke="#E4761B" stroke-width="0.3125" stroke-linecap="round" stroke-linejoin="round"/>
<path d="M32.3922 28.4331L28.2354 34.8017L37.1295 37.2488L39.6863 28.5743L32.3922 28.4331Z" fill="#E4761B" stroke="#E4761B" stroke-width="0.3125" stroke-linecap="round" stroke-linejoin="round"/>
<path d="M0.32959 28.5743L2.87077 37.2488L11.7649 34.8017L7.60802 28.4331L0.32959 28.5743Z" fill="#E4761B" stroke="#E4761B" stroke-width="0.3125" stroke-linecap="round" stroke-linejoin="round"/>
<path d="M11.2631 17.6723L8.78467 21.4213L17.616 21.8135L17.3023 12.3233L11.2631 17.6723Z" fill="#E4761B" stroke="#E4761B" stroke-width="0.3125" stroke-linecap="round" stroke-linejoin="round"/>
<path d="M28.722 17.6723L22.6043 12.2135L22.4004 21.8135L31.2161 21.4213L28.722 17.6723Z" fill="#E4761B" stroke="#E4761B" stroke-width="0.3125" stroke-linecap="round" stroke-linejoin="round"/>
<path d="M11.7646 34.8017L17.0666 32.2135L12.4862 28.637L11.7646 34.8017Z" fill="#E4761B" stroke="#E4761B" stroke-width="0.3125" stroke-linecap="round" stroke-linejoin="round"/>
<path d="M22.918 32.2135L28.2356 34.8017L27.4984 28.637L22.918 32.2135Z" fill="#E4761B" stroke="#E4761B" stroke-width="0.3125" stroke-linecap="round" stroke-linejoin="round"/>
<path d="M28.2351 34.8017L22.9175 32.2135L23.341 35.6802L23.294 37.139L28.2351 34.8017Z" fill="#D7C1B3" stroke="#D7C1B3" stroke-width="0.3125" stroke-linecap="round" stroke-linejoin="round"/>
<path d="M11.7646 34.8017L16.7058 37.139L16.6745 35.6802L17.0666 32.2135L11.7646 34.8017Z" fill="#D7C1B3" stroke="#D7C1B3" stroke-width="0.3125" stroke-linecap="round" stroke-linejoin="round"/>
<path d="M16.7844 26.3468L12.3608 25.0449L15.4824 23.6174L16.7844 26.3468Z" fill="#233447" stroke="#233447" stroke-width="0.3125" stroke-linecap="round" stroke-linejoin="round"/>
<path d="M23.2002 26.3468L24.5022 23.6174L27.6394 25.0449L23.2002 26.3468Z" fill="#233447" stroke="#233447" stroke-width="0.3125" stroke-linecap="round" stroke-linejoin="round"/>
<path d="M11.7648 34.8017L12.5177 28.4331L7.60791 28.5743L11.7648 34.8017Z" fill="#CD6116" stroke="#CD6116" stroke-width="0.3125" stroke-linecap="round" stroke-linejoin="round"/>
<path d="M27.4824 28.4331L28.2354 34.8017L32.3922 28.5743L27.4824 28.4331Z" fill="#CD6116" stroke="#CD6116" stroke-width="0.3125" stroke-linecap="round" stroke-linejoin="round"/>
<path d="M31.2156 21.4213L22.3999 21.8135L23.2156 26.3468L24.5175 23.6174L27.6548 25.0449L31.2156 21.4213Z" fill="#CD6116" stroke="#CD6116" stroke-width="0.3125" stroke-linecap="round" stroke-linejoin="round"/>
<path d="M12.3606 25.0449L15.4979 23.6174L16.7842 26.3468L17.6156 21.8135L8.78418 21.4213L12.3606 25.0449Z" fill="#CD6116" stroke="#CD6116" stroke-width="0.3125" stroke-linecap="round" stroke-linejoin="round"/>
<path d="M8.78418 21.4213L12.4861 28.637L12.3606 25.0449L8.78418 21.4213Z" fill="#E4751F" stroke="#E4751F" stroke-width="0.3125" stroke-linecap="round" stroke-linejoin="round"/>
<path d="M27.6549 25.0449L27.498 28.637L31.2157 21.4213L27.6549 25.0449Z" fill="#E4751F" stroke="#E4751F" stroke-width="0.3125" stroke-linecap="round" stroke-linejoin="round"/>
<path d="M17.6156 21.8135L16.7842 26.3468L17.8195 31.6958L18.0548 24.6527L17.6156 21.8135Z" fill="#E4751F" stroke="#E4751F" stroke-width="0.3125" stroke-linecap="round" stroke-linejoin="round"/>
<path d="M22.4001 21.8135L21.9766 24.637L22.1648 31.6958L23.2158 26.3468L22.4001 21.8135Z" fill="#E4751F" stroke="#E4751F" stroke-width="0.3125" stroke-linecap="round" stroke-linejoin="round"/>
<path d="M23.2155 26.3468L22.1646 31.6958L22.9175 32.2135L27.4979 28.637L27.6547 25.0449L23.2155 26.3468Z" fill="#F6851B" stroke="#F6851B" stroke-width="0.3125" stroke-linecap="round" stroke-linejoin="round"/>
<path d="M12.3608 25.0449L12.4863 28.637L17.0667 32.2135L17.8197 31.6958L16.7844 26.3468L12.3608 25.0449Z" fill="#F6851B" stroke="#F6851B" stroke-width="0.3125" stroke-linecap="round" stroke-linejoin="round"/>
<path d="M23.2941 37.139L23.3411 35.6801L22.949 35.335H17.0352L16.6745 35.6801L16.7058 37.139L11.7646 34.8017L13.4901 36.2135L16.9882 38.6448H22.996L26.5097 36.2135L28.2352 34.8017L23.2941 37.139Z" fill="#C0AD9E" stroke="#C0AD9E" stroke-width="0.3125" stroke-linecap="round" stroke-linejoin="round"/>
<path d="M22.9175 32.2135L22.1645 31.6959H17.8194L17.0665 32.2135L16.6743 35.6802L17.0351 35.3351H22.9488L23.341 35.6802L22.9175 32.2135Z" fill="#161616" stroke="#161616" stroke-width="0.3125" stroke-linecap="round" stroke-linejoin="round"/>
<path d="M38.6665 13.9076L39.9998 7.5076L38.0077 1.5625L22.9175 12.7625L28.7214 17.6723L36.9253 20.0723L38.7449 17.9547L37.9606 17.39L39.2155 16.2449L38.243 15.4919L39.4979 14.5351L38.6665 13.9076Z" fill="#763D16" stroke="#763D16" stroke-width="0.3125" stroke-linecap="round" stroke-linejoin="round"/>
<path d="M0 7.5076L1.33333 13.9076L0.486275 14.5351L1.74118 15.4919L0.784314 16.2449L2.03922 17.39L1.2549 17.9547L3.05882 20.0723L11.2627 17.6723L17.0667 12.7625L1.97647 1.5625L0 7.5076Z" fill="#763D16" stroke="#763D16" stroke-width="0.3125" stroke-linecap="round" stroke-linejoin="round"/>
<path d="M36.9255 20.0723L28.7216 17.6723L31.2157 21.4213L27.498 28.637L32.3922 28.5743H39.6863L36.9255 20.0723Z" fill="#F6851B" stroke="#F6851B" stroke-width="0.3125" stroke-linecap="round" stroke-linejoin="round"/>
<path d="M11.2629 17.6723L3.059 20.0723L0.32959 28.5743H7.60802L12.4865 28.637L8.78449 21.4213L11.2629 17.6723Z" fill="#F6851B" stroke="#F6851B" stroke-width="0.3125" stroke-linecap="round" stroke-linejoin="round"/>
<path d="M22.4001 21.8135L22.9178 12.7625L25.3021 6.31543H14.7139L17.0668 12.7625L17.6158 21.8135L17.8041 24.6684L17.8197 31.6958H22.1648L22.1962 24.6684L22.4001 21.8135Z" fill="#F6851B" stroke="#F6851B" stroke-width="0.3125" stroke-linecap="round" stroke-linejoin="round"/>
</g>
<defs>
<clipPath id="clip0_2422_8287">
<rect width="40" height="40" fill="white"/>
</clipPath>
</defs>
</svg>
